ply
format ascii 1.0
comment Created by Blender 2.76 (sub 0) - www.blender.org, source file: ''
element vertex 25
property float x
property float y
property float z
element face 11
property list uchar uint vertex_indices
end_header
-65.595032 18.630157 38.488049
-63.555931 26.357565 38.847599
-10.285862 11.863697 48.240551
-66.984215 18.630156 46.366512
-13.714144 4.136289 55.759460
-11.675047 11.863695 56.119011
-64.945122 26.357563 46.726059
-65.595032 18.630157 38.488049
-12.324959 4.136291 47.880997
-13.714144 4.136289 55.759460
-66.984215 18.630156 46.366512
-10.285862 11.863697 48.240551
-63.555931 26.357565 38.847599
-64.945122 26.357563 46.726059
-11.675047 11.863695 56.119011
-63.555931 26.357565 38.847599
-65.595032 18.630157 38.488049
-66.984215 18.630156 46.366512
-66.984215 18.630156 46.366512
-64.945122 26.357563 46.726059
-63.555931 26.357565 38.847599
-64.575478 22.493856 38.667824
-11.305412 7.999990 48.060772
-1.581116 7.999990 -7.088458
-54.851181 22.493856 -16.481407
3 0 1 2
3 3 4 5
3 5 6 3
3 7 8 9
3 9 10 7
3 11 12 13
3 13 14 11
3 15 16 17
3 18 19 20
3 21 22 23
3 23 24 21
