ply
format ascii 1.0
comment Created by Blender 2.76 (sub 0) - www.blender.org, source file: ''
element vertex 36
property float x
property float y
property float z
element face 14
property list uchar uint vertex_indices
end_header
64.575462 22.493856 38.667828
103.571854 -17.104124 31.791706
93.847527 -17.104141 -23.357506
54.851139 22.493837 -16.481386
102.179131 -18.518339 32.037273
63.182743 21.079645 38.913395
65.968193 23.908072 38.422245
104.964584 -15.689912 31.546124
102.873726 -18.518337 35.976505
105.659180 -15.689911 35.485352
66.662788 23.908072 42.361473
63.877335 21.079645 42.852627
102.179131 -18.518339 32.037273
102.873726 -18.518337 35.976505
63.877335 21.079645 42.852627
63.877335 21.079645 42.852627
63.182743 21.079645 38.913395
102.179131 -18.518339 32.037273
63.182743 21.079645 38.913395
63.877335 21.079645 42.852627
66.662788 23.908072 42.361473
66.662788 23.908072 42.361473
65.968193 23.908072 38.422245
63.182743 21.079645 38.913395
65.968193 23.908072 38.422245
66.662788 23.908072 42.361473
105.659180 -15.689911 35.485352
105.659180 -15.689911 35.485352
104.964584 -15.689912 31.546124
65.968193 23.908072 38.422245
104.964584 -15.689912 31.546124
105.659180 -15.689911 35.485352
102.873726 -18.518337 35.976505
102.873726 -18.518337 35.976505
102.179131 -18.518339 32.037273
104.964584 -15.689912 31.546124
3 0 1 2
3 2 3 0
3 4 5 6
3 6 7 4
3 8 9 10
3 10 11 8
3 12 13 14
3 15 16 17
3 18 19 20
3 21 22 23
3 24 25 26
3 27 28 29
3 30 31 32
3 33 34 35
