ply
format ascii 1.0
comment Created by Blender 2.76 (sub 0) - www.blender.org, source file: ''
element vertex 31
property float x
property float y
property float z
element face 13
property list uchar uint vertex_indices
end_header
65.595009 18.630157 38.488049
12.324949 4.136291 47.880997
10.285852 11.863697 48.240551
10.285852 11.863697 48.240551
63.555920 26.357565 38.847599
65.595009 18.630157 38.488049
66.984200 18.630156 46.366512
64.945099 26.357563 46.726059
11.675037 11.863695 56.119011
13.714134 4.136289 55.759460
65.595009 18.630157 38.488049
66.984200 18.630156 46.366512
13.714134 4.136289 55.759460
12.324949 4.136291 47.880997
12.324949 4.136291 47.880997
13.714134 4.136289 55.759460
11.675037 11.863695 56.119011
10.285852 11.863697 48.240551
11.675037 11.863695 56.119011
64.945099 26.357563 46.726059
63.555920 26.357565 38.847599
63.555920 26.357565 38.847599
64.945099 26.357563 46.726059
66.984200 18.630156 46.366512
66.984200 18.630156 46.366512
65.595009 18.630157 38.488049
63.555920 26.357565 38.847599
1.581114 7.999991 -7.088442
11.305410 7.999996 48.060772
64.575462 22.493856 38.667824
54.851170 22.493851 -16.481392
3 0 1 2
3 3 4 5
3 6 7 8
3 8 9 6
3 10 11 12
3 12 13 10
3 14 15 16
3 17 18 19
3 19 20 17
3 21 22 23
3 24 25 26
3 27 28 29
3 29 30 27
