ply
format ascii 1.0
comment Created by Blender 2.76 (sub 0) - www.blender.org, source file: ''
element vertex 35
property float x
property float y
property float z
element face 13
property list uchar uint vertex_indices
end_header
-93.847557 -17.104116 -23.357546
-103.571884 -17.104115 31.791685
-64.575493 22.493858 38.667820
-54.851162 22.493855 -16.481411
-102.179153 -18.518332 32.037258
-104.964607 -15.689904 31.546108
-65.968216 23.908072 38.422245
-102.873749 -18.518332 35.976490
-63.877346 21.079643 42.852627
-66.662811 23.908070 42.361477
-66.662811 23.908070 42.361477
-105.659203 -15.689905 35.485336
-102.873749 -18.518332 35.976490
-102.179153 -18.518332 32.037258
-63.182755 21.079645 38.913395
-63.877346 21.079643 42.852627
-63.877346 21.079643 42.852627
-102.873749 -18.518332 35.976490
-102.179153 -18.518332 32.037258
-63.182755 21.079645 38.913395
-65.968216 23.908072 38.422245
-66.662811 23.908070 42.361477
-66.662811 23.908070 42.361477
-63.877346 21.079643 42.852627
-63.182755 21.079645 38.913395
-65.968216 23.908072 38.422245
-104.964607 -15.689904 31.546108
-105.659203 -15.689905 35.485336
-66.662811 23.908070 42.361477
-104.964607 -15.689904 31.546108
-102.179153 -18.518332 32.037258
-102.873749 -18.518332 35.976490
-102.873749 -18.518332 35.976490
-105.659203 -15.689905 35.485336
-104.964607 -15.689904 31.546108
3 0 1 2
3 2 3 0
3 4 5 6
3 7 8 9
3 10 11 12
3 13 14 15
3 16 17 18
3 19 20 21
3 22 23 24
3 25 26 27
3 27 28 25
3 29 30 31
3 32 33 34
