ply
format ascii 1.0
comment Created by Blender 2.76 (sub 0) - www.blender.org, source file: 'ed_diseño.blend'
element vertex 102
property float x
property float y
property float z
element face 50
property list uchar uint vertex_indices
end_header
-12.000004 -11.874765 -31.371149
-12.000004 12.125235 -31.371145
11.999996 12.125235 -31.371145
11.999996 -11.874765 -31.371149
-12.000004 -11.874775 32.628849
11.999996 -11.874775 32.628849
11.999996 12.125225 32.628853
-12.000004 12.125225 32.628853
-12.000004 -11.874765 -31.371149
11.999996 -11.874765 -31.371149
11.999996 -11.874775 32.628849
-12.000004 -11.874775 32.628849
11.999996 -11.874765 -31.371149
11.999996 12.125235 -31.371145
11.999996 12.125225 32.628853
11.999996 -11.874775 32.628849
11.999996 12.125235 -31.371145
-12.000004 12.125235 -31.371145
-12.000004 12.125225 32.628853
11.999996 12.125225 32.628853
-12.000004 12.125235 -31.371145
-12.000004 -11.874765 -31.371149
-12.000004 -11.874775 32.628849
-12.000004 12.125225 32.628853
-12.324959 4.261526 16.509850
-10.285862 11.988932 16.869404
-11.675047 11.988930 24.747864
-1.000004 12.125232 14.628857
-1.000004 18.125231 14.628857
0.999996 18.125231 14.628857
0.999996 12.125232 14.628857
-1.000004 12.125230 26.628857
0.999996 12.125230 26.628857
0.999996 18.125229 26.628857
-1.000004 18.125229 26.628857
-1.000004 12.125232 14.628857
0.999996 12.125232 14.628857
0.999996 12.125230 26.628857
-1.000004 12.125230 26.628857
0.999996 12.125232 14.628857
0.999996 18.125231 14.628857
0.999996 18.125229 26.628857
0.999996 12.125230 26.628857
0.999996 18.125231 14.628857
-1.000004 18.125231 14.628857
-1.000004 18.125229 26.628857
0.999996 18.125229 26.628857
-1.000004 18.125231 14.628857
-1.000004 12.125232 14.628857
-1.000004 12.125230 26.628857
-1.000004 18.125229 26.628857
-1.000004 12.125232 -5.371145
-1.000004 18.125231 -5.371143
0.999996 18.125231 -5.371143
0.999996 12.125232 -5.371145
-1.000004 12.125230 6.628857
0.999996 12.125230 6.628857
0.999996 18.125229 6.628857
-1.000004 18.125229 6.628857
-1.000004 12.125232 -5.371145
0.999996 12.125232 -5.371145
0.999996 12.125230 6.628857
-1.000004 12.125230 6.628857
0.999996 12.125232 -5.371145
0.999996 18.125231 -5.371143
0.999996 18.125229 6.628857
0.999996 12.125230 6.628857
0.999996 18.125231 -5.371143
-1.000004 18.125231 -5.371143
-1.000004 18.125229 6.628857
0.999996 18.125229 6.628857
-1.000004 18.125231 -5.371143
-1.000004 12.125232 -5.371145
-1.000004 12.125230 6.628857
-1.000004 18.125229 6.628857
-1.000004 12.125231 -25.371145
-1.000004 18.125229 -25.371143
0.999996 18.125229 -25.371143
0.999996 12.125231 -25.371145
-1.000004 12.125229 -13.371145
0.999996 12.125229 -13.371145
0.999996 18.125227 -13.371143
-1.000004 18.125227 -13.371143
-1.000004 12.125231 -25.371145
0.999996 12.125231 -25.371145
0.999996 12.125229 -13.371145
-1.000004 12.125229 -13.371145
0.999996 12.125231 -25.371145
0.999996 18.125229 -25.371143
0.999996 18.125227 -13.371143
0.999996 12.125229 -13.371145
0.999996 18.125229 -25.371143
-1.000004 18.125229 -25.371143
-1.000004 18.125227 -13.371143
0.999996 18.125227 -13.371143
-1.000004 18.125229 -25.371143
-1.000004 12.125231 -25.371145
-1.000004 12.125229 -13.371145
-1.000004 18.125227 -13.371143
11.675037 11.988930 24.747864
10.285852 11.988932 16.869404
12.324949 4.261526 16.509850
3 0 1 2
3 3 0 2
3 4 5 6
3 6 7 4
3 8 9 10
3 11 8 10
3 12 13 14
3 14 15 12
3 16 17 18
3 18 19 16
3 20 21 22
3 22 23 20
3 24 25 26
3 27 28 29
3 29 30 27
3 31 32 33
3 33 34 31
3 35 36 37
3 37 38 35
3 39 40 41
3 41 42 39
3 43 44 45
3 45 46 43
3 47 48 49
3 49 50 47
3 51 52 53
3 53 54 51
3 55 56 57
3 57 58 55
3 59 60 61
3 61 62 59
3 63 64 65
3 65 66 63
3 67 68 69
3 69 70 67
3 71 72 73
3 73 74 71
3 75 76 77
3 77 78 75
3 79 80 81
3 81 82 79
3 83 84 85
3 85 86 83
3 87 88 89
3 89 90 87
3 91 92 93
3 93 94 91
3 95 96 97
3 97 98 95
3 99 100 101
