ply
format ascii 1.0
comment Created by Blender 2.76 (sub 0) - www.blender.org, source file: 'ed_diseño.blend'
element vertex 576
property float x
property float y
property float z
element face 288
property list uchar uint vertex_indices
end_header
-5.000004 -5.243923 -10.000001
-5.000004 4.756077 -9.999999
4.999996 4.756077 -9.999999
4.999996 -5.243923 -10.000001
-5.000004 -5.243925 -0.000001
4.999996 -5.243925 -0.000001
4.999996 4.756076 0.000000
-5.000004 4.756076 0.000000
-5.000004 -5.243923 -10.000001
4.999996 -5.243923 -10.000001
4.999996 -5.243925 -0.000001
-5.000004 -5.243925 -0.000001
4.999996 -5.243923 -10.000001
4.999996 4.756077 -9.999999
4.999996 4.756076 0.000000
4.999996 -5.243925 -0.000001
4.999996 4.756077 -9.999999
-5.000004 4.756077 -9.999999
-5.000004 4.756076 0.000000
4.999996 4.756076 0.000000
-5.000004 4.756077 -9.999999
-5.000004 -5.243923 -10.000001
-5.000004 -5.243925 -0.000001
-5.000004 4.756076 0.000000
-1.000004 4.756076 -8.000000
-1.000004 8.756076 -7.999999
0.999996 8.756076 -7.999999
0.999996 4.756076 -8.000000
-1.000004 4.756075 -2.000000
0.999996 4.756075 -2.000000
0.999996 8.756075 -1.999999
-1.000004 8.756075 -1.999999
-1.000004 4.756076 -8.000000
0.999996 4.756076 -8.000000
0.999996 4.756075 -2.000000
-1.000004 4.756075 -2.000000
0.999996 4.756076 -8.000000
0.999996 8.756076 -7.999999
0.999996 8.756075 -1.999999
0.999996 4.756075 -2.000000
0.999996 8.756076 -7.999999
-1.000004 8.756076 -7.999999
-1.000004 8.756075 -1.999999
0.999996 8.756075 -1.999999
-1.000004 8.756076 -7.999999
-1.000004 4.756076 -8.000000
-1.000004 4.756075 -2.000000
-1.000004 8.756075 -1.999999
-5.000004 -5.243923 -20.000002
-5.000004 4.756077 -20.000000
4.999996 4.756077 -20.000000
4.999996 -5.243923 -20.000002
-5.000004 -5.243925 -10.000001
4.999996 -5.243925 -10.000001
4.999996 4.756076 -9.999999
-5.000004 4.756076 -9.999999
-5.000004 -5.243923 -20.000002
4.999996 -5.243923 -20.000002
4.999996 -5.243925 -10.000001
-5.000004 -5.243925 -10.000001
4.999996 -5.243923 -20.000002
4.999996 4.756077 -20.000000
4.999996 4.756076 -9.999999
4.999996 -5.243925 -10.000001
4.999996 4.756077 -20.000000
-5.000004 4.756077 -20.000000
-5.000004 4.756076 -9.999999
4.999996 4.756076 -9.999999
-5.000004 4.756077 -20.000000
-5.000004 -5.243923 -20.000002
-5.000004 -5.243925 -10.000001
-5.000004 4.756076 -9.999999
-1.000004 4.756075 -18.000000
-1.000004 8.756075 -17.999998
0.999996 8.756075 -17.999998
0.999996 4.756075 -18.000000
-1.000004 4.756074 -11.999999
0.999996 4.756074 -11.999999
0.999996 8.756074 -11.999999
-1.000004 8.756074 -11.999999
-1.000004 4.756075 -18.000000
0.999996 4.756075 -18.000000
0.999996 4.756074 -11.999999
-1.000004 4.756074 -11.999999
0.999996 4.756075 -18.000000
0.999996 8.756075 -17.999998
0.999996 8.756074 -11.999999
0.999996 4.756074 -11.999999
0.999996 8.756075 -17.999998
-1.000004 8.756075 -17.999998
-1.000004 8.756074 -11.999999
0.999996 8.756074 -11.999999
-1.000004 8.756075 -17.999998
-1.000004 4.756075 -18.000000
-1.000004 4.756074 -11.999999
-1.000004 8.756074 -11.999999
-5.000004 -5.243923 -30.000002
-5.000004 4.756077 -30.000000
4.999996 4.756077 -30.000000
4.999996 -5.243923 -30.000002
-5.000004 -5.243924 -20.000002
4.999996 -5.243924 -20.000002
4.999996 4.756076 -20.000000
-5.000004 4.756076 -20.000000
-5.000004 -5.243923 -30.000002
4.999996 -5.243923 -30.000002
4.999996 -5.243924 -20.000002
-5.000004 -5.243924 -20.000002
4.999996 -5.243923 -30.000002
4.999996 4.756077 -30.000000
4.999996 4.756076 -20.000000
4.999996 -5.243924 -20.000002
4.999996 4.756077 -30.000000
-5.000004 4.756077 -30.000000
-5.000004 4.756076 -20.000000
4.999996 4.756076 -20.000000
-5.000004 4.756077 -30.000000
-5.000004 -5.243923 -30.000002
-5.000004 -5.243924 -20.000002
-5.000004 4.756076 -20.000000
-1.000004 4.756076 -28.000000
-1.000004 8.756076 -27.999998
0.999996 8.756076 -27.999998
0.999996 4.756076 -28.000000
-1.000004 4.756075 -22.000000
0.999996 4.756075 -22.000000
0.999996 8.756075 -21.999998
-1.000004 8.756075 -21.999998
-1.000004 4.756076 -28.000000
0.999996 4.756076 -28.000000
0.999996 4.756075 -22.000000
-1.000004 4.756075 -22.000000
0.999996 4.756076 -28.000000
0.999996 8.756076 -27.999998
0.999996 8.756075 -21.999998
0.999996 4.756075 -22.000000
0.999996 8.756076 -27.999998
-1.000004 8.756076 -27.999998
-1.000004 8.756075 -21.999998
0.999996 8.756075 -21.999998
-1.000004 8.756076 -27.999998
-1.000004 4.756076 -28.000000
-1.000004 4.756075 -22.000000
-1.000004 8.756075 -21.999998
-5.000004 -5.243923 -40.000000
-5.000004 4.756077 -40.000000
4.999996 4.756077 -40.000000
4.999996 -5.243923 -40.000000
-5.000004 -5.243925 -30.000002
4.999996 -5.243925 -30.000002
4.999996 4.756076 -30.000000
-5.000004 4.756076 -30.000000
-5.000004 -5.243923 -40.000000
4.999996 -5.243923 -40.000000
4.999996 -5.243925 -30.000002
-5.000004 -5.243925 -30.000002
4.999996 -5.243923 -40.000000
4.999996 4.756077 -40.000000
4.999996 4.756076 -30.000000
4.999996 -5.243925 -30.000002
4.999996 4.756077 -40.000000
-5.000004 4.756077 -40.000000
-5.000004 4.756076 -30.000000
4.999996 4.756076 -30.000000
-5.000004 4.756077 -40.000000
-5.000004 -5.243923 -40.000000
-5.000004 -5.243925 -30.000002
-5.000004 4.756076 -30.000000
-1.000004 4.756075 -38.000000
-1.000004 8.756075 -38.000000
0.999996 8.756075 -38.000000
0.999996 4.756075 -38.000000
-1.000004 4.756074 -32.000000
0.999996 4.756074 -32.000000
0.999996 8.756074 -31.999998
-1.000004 8.756074 -31.999998
-1.000004 4.756075 -38.000000
0.999996 4.756075 -38.000000
0.999996 4.756074 -32.000000
-1.000004 4.756074 -32.000000
0.999996 4.756075 -38.000000
0.999996 8.756075 -38.000000
0.999996 8.756074 -31.999998
0.999996 4.756074 -32.000000
0.999996 8.756075 -38.000000
-1.000004 8.756075 -38.000000
-1.000004 8.756074 -31.999998
0.999996 8.756074 -31.999998
-1.000004 8.756075 -38.000000
-1.000004 4.756075 -38.000000
-1.000004 4.756074 -32.000000
-1.000004 8.756074 -31.999998
-5.000004 -5.327201 -49.855648
-5.000004 4.671371 -50.024632
4.999996 4.671371 -50.024632
4.999996 -5.327201 -49.855648
-5.000004 -5.158219 -39.857079
4.999996 -5.158219 -39.857079
4.999996 4.840352 -40.026062
-5.000004 4.840352 -40.026062
-5.000004 -5.327201 -49.855648
4.999996 -5.327201 -49.855648
4.999996 -5.158219 -39.857079
-5.000004 -5.158219 -39.857079
4.999996 -5.327201 -49.855648
4.999996 4.671371 -50.024632
4.999996 4.840352 -40.026062
4.999996 -5.158219 -39.857079
4.999996 4.671371 -50.024632
-5.000004 4.671371 -50.024632
-5.000004 4.840352 -40.026062
4.999996 4.840352 -40.026062
-5.000004 4.671371 -50.024632
-5.000004 -5.327201 -49.855648
-5.000004 -5.158219 -39.857079
-5.000004 4.840352 -40.026062
-1.000004 4.705166 -48.024918
-1.000004 8.704595 -48.092514
0.999996 8.704595 -48.092514
0.999996 4.705166 -48.024918
-1.000004 4.806555 -42.025776
0.999996 4.806555 -42.025776
0.999996 8.805984 -42.093369
-1.000004 8.805984 -42.093369
-1.000004 4.705166 -48.024918
0.999996 4.705166 -48.024918
0.999996 4.806555 -42.025776
-1.000004 4.806555 -42.025776
0.999996 4.705166 -48.024918
0.999996 8.704595 -48.092514
0.999996 8.805984 -42.093369
0.999996 4.806555 -42.025776
0.999996 8.704595 -48.092514
-1.000004 8.704595 -48.092514
-1.000004 8.805984 -42.093369
0.999996 8.805984 -42.093369
-1.000004 8.704595 -48.092514
-1.000004 4.705166 -48.024918
-1.000004 4.806555 -42.025776
-1.000004 8.805984 -42.093369
-5.000004 -5.753963 -59.596970
-5.000004 4.235094 -60.064682
4.999996 4.235094 -60.064682
4.999996 -5.753963 -59.596970
-5.000004 -5.286247 -49.607910
4.999996 -5.286247 -49.607910
4.999996 4.702808 -50.075630
-5.000004 4.702808 -50.075630
-5.000004 -5.753963 -59.596970
4.999996 -5.753963 -59.596970
4.999996 -5.286247 -49.607910
-5.000004 -5.286247 -49.607910
4.999996 -5.753963 -59.596970
4.999996 4.235094 -60.064682
4.999996 4.702808 -50.075630
4.999996 -5.286247 -49.607910
4.999996 4.235094 -60.064682
-5.000004 4.235094 -60.064682
-5.000004 4.702808 -50.075630
4.999996 4.702808 -50.075630
-5.000004 4.235094 -60.064682
-5.000004 -5.753963 -59.596970
-5.000004 -5.286247 -49.607910
-5.000004 4.702808 -50.075630
-1.000004 4.328635 -58.066872
-1.000004 8.324257 -58.253960
0.999996 8.324257 -58.253960
0.999996 4.328635 -58.066872
-1.000004 4.609264 -52.073441
0.999996 4.609264 -52.073441
0.999996 8.604886 -52.260525
-1.000004 8.604886 -52.260525
-1.000004 4.328635 -58.066872
0.999996 4.328635 -58.066872
0.999996 4.609264 -52.073441
-1.000004 4.609264 -52.073441
0.999996 4.328635 -58.066872
0.999996 8.324257 -58.253960
0.999996 8.604886 -52.260525
0.999996 4.609264 -52.073441
0.999996 8.324257 -58.253960
-1.000004 8.324257 -58.253960
-1.000004 8.604886 -52.260525
0.999996 8.604886 -52.260525
-1.000004 8.324257 -58.253960
-1.000004 4.328635 -58.066872
-1.000004 4.609264 -52.073441
-1.000004 8.604886 -52.260525
-5.000004 -6.154713 -69.720520
-5.000004 3.839983 -70.046204
4.999996 3.839983 -70.046204
4.999996 -6.154713 -69.720520
-5.000004 -5.829034 -59.725826
4.999996 -5.829034 -59.725826
4.999996 4.165662 -60.051506
-5.000004 4.165662 -60.051506
-5.000004 -6.154713 -69.720520
4.999996 -6.154713 -69.720520
4.999996 -5.829034 -59.725826
-5.000004 -5.829034 -59.725826
4.999996 -6.154713 -69.720520
4.999996 3.839983 -70.046204
4.999996 4.165662 -60.051506
4.999996 -5.829034 -59.725826
4.999996 3.839983 -70.046204
-5.000004 3.839983 -70.046204
-5.000004 4.165662 -60.051506
4.999996 4.165662 -60.051506
-5.000004 3.839983 -70.046204
-5.000004 -6.154713 -69.720520
-5.000004 -5.829034 -59.725826
-5.000004 4.165662 -60.051506
-1.000004 3.905116 -68.047256
-1.000004 7.902995 -68.177536
0.999996 7.902995 -68.177536
0.999996 3.905116 -68.047256
-1.000004 4.100524 -62.050442
0.999996 4.100524 -62.050442
0.999996 8.098402 -62.180714
-1.000004 8.098402 -62.180714
-1.000004 3.905116 -68.047256
0.999996 3.905116 -68.047256
0.999996 4.100524 -62.050442
-1.000004 4.100524 -62.050442
0.999996 3.905116 -68.047256
0.999996 7.902995 -68.177536
0.999996 8.098402 -62.180714
0.999996 4.100524 -62.050442
0.999996 7.902995 -68.177536
-1.000004 7.902995 -68.177536
-1.000004 8.098402 -62.180714
0.999996 8.098402 -62.180714
-1.000004 7.902995 -68.177536
-1.000004 3.905116 -68.047256
-1.000004 4.100524 -62.050442
-1.000004 8.098402 -62.180714
-5.000004 -6.567483 -79.693398
-5.000004 3.426145 -80.050346
4.999996 3.426145 -80.050346
4.999996 -6.567483 -79.693398
-5.000004 -6.210530 -69.699768
4.999996 -6.210530 -69.699768
4.999996 3.783098 -70.056725
-5.000004 3.783098 -70.056725
-5.000004 -6.567483 -79.693398
4.999996 -6.567483 -79.693398
4.999996 -6.210530 -69.699768
-5.000004 -6.210530 -69.699768
4.999996 -6.567483 -79.693398
4.999996 3.426145 -80.050346
4.999996 3.783098 -70.056725
4.999996 -6.210530 -69.699768
4.999996 3.426145 -80.050346
-5.000004 3.426145 -80.050346
-5.000004 3.783098 -70.056725
4.999996 3.783098 -70.056725
-5.000004 3.426145 -80.050346
-5.000004 -6.567483 -79.693398
-5.000004 -6.210530 -69.699768
-5.000004 3.783098 -70.056725
-1.000004 3.497534 -78.051643
-1.000004 7.494985 -78.194420
0.999996 7.494985 -78.194420
0.999996 3.497534 -78.051643
-1.000004 3.711705 -72.055466
0.999996 3.711705 -72.055466
0.999996 7.709156 -72.198250
-1.000004 7.709156 -72.198250
-1.000004 3.497534 -78.051643
0.999996 3.497534 -78.051643
0.999996 3.711705 -72.055466
-1.000004 3.711705 -72.055466
0.999996 3.497534 -78.051643
0.999996 7.494985 -78.194420
0.999996 7.709156 -72.198250
0.999996 3.711705 -72.055466
0.999996 7.494985 -78.194420
-1.000004 7.494985 -78.194420
-1.000004 7.709156 -72.198250
0.999996 7.709156 -72.198250
-1.000004 7.494985 -78.194420
-1.000004 3.497534 -78.051643
-1.000004 3.711705 -72.055466
-1.000004 7.709156 -72.198250
-5.000004 -7.066973 -89.675659
-5.000004 2.925904 -90.053070
4.999996 2.925904 -90.053070
4.999996 -7.066973 -89.675659
-5.000004 -6.689570 -79.682785
4.999996 -6.689570 -79.682785
4.999996 3.303306 -80.060188
-5.000004 3.303306 -80.060188
-5.000004 -7.066973 -89.675659
4.999996 -7.066973 -89.675659
4.999996 -6.689570 -79.682785
-5.000004 -6.689570 -79.682785
4.999996 -7.066973 -89.675659
4.999996 2.925904 -90.053070
4.999996 3.303306 -80.060188
4.999996 -6.689570 -79.682785
4.999996 2.925904 -90.053070
-5.000004 2.925904 -90.053070
-5.000004 3.303306 -80.060188
4.999996 3.303306 -80.060188
-5.000004 2.925904 -90.053070
-5.000004 -7.066973 -89.675659
-5.000004 -6.689570 -79.682785
-5.000004 3.303306 -80.060188
-1.000004 3.001382 -88.054466
-1.000004 6.998533 -88.205421
0.999996 6.998533 -88.205421
0.999996 3.001382 -88.054466
-1.000004 3.227823 -82.058739
0.999996 3.227823 -82.058739
0.999996 7.224974 -82.209702
-1.000004 7.224974 -82.209702
-1.000004 3.001382 -88.054466
0.999996 3.001382 -88.054466
0.999996 3.227823 -82.058739
-1.000004 3.227823 -82.058739
0.999996 3.001382 -88.054466
0.999996 6.998533 -88.205421
0.999996 7.224974 -82.209702
0.999996 3.227823 -82.058739
0.999996 6.998533 -88.205421
-1.000004 6.998533 -88.205421
-1.000004 7.224974 -82.209702
0.999996 7.224974 -82.209702
-1.000004 6.998533 -88.205421
-1.000004 3.001382 -88.054466
-1.000004 3.227823 -82.058739
-1.000004 7.224974 -82.209702
-5.000004 -7.009441 -100.000000
-5.000004 2.990559 -100.000000
4.999996 2.990559 -100.000000
4.999996 -7.009441 -100.000000
-5.000004 -7.009443 -90.000000
4.999996 -7.009443 -90.000000
4.999996 2.990557 -90.000000
-5.000004 2.990557 -90.000000
-5.000004 -7.009441 -100.000000
4.999996 -7.009441 -100.000000
4.999996 -7.009443 -90.000000
-5.000004 -7.009443 -90.000000
4.999996 -7.009441 -100.000000
4.999996 2.990559 -100.000000
4.999996 2.990557 -90.000000
4.999996 -7.009443 -90.000000
4.999996 2.990559 -100.000000
-5.000004 2.990559 -100.000000
-5.000004 2.990557 -90.000000
4.999996 2.990557 -90.000000
-5.000004 2.990559 -100.000000
-5.000004 -7.009441 -100.000000
-5.000004 -7.009443 -90.000000
-5.000004 2.990557 -90.000000
-1.000004 2.990557 -98.000000
-1.000004 6.990557 -98.000000
0.999996 6.990557 -98.000000
0.999996 2.990557 -98.000000
-1.000004 2.990556 -92.000000
0.999996 2.990556 -92.000000
0.999996 6.990556 -92.000000
-1.000004 6.990556 -92.000000
-1.000004 2.990557 -98.000000
0.999996 2.990557 -98.000000
0.999996 2.990556 -92.000000
-1.000004 2.990556 -92.000000
0.999996 2.990557 -98.000000
0.999996 6.990557 -98.000000
0.999996 6.990556 -92.000000
0.999996 2.990556 -92.000000
0.999996 6.990557 -98.000000
-1.000004 6.990557 -98.000000
-1.000004 6.990556 -92.000000
0.999996 6.990556 -92.000000
-1.000004 6.990557 -98.000000
-1.000004 2.990557 -98.000000
-1.000004 2.990556 -92.000000
-1.000004 6.990556 -92.000000
-5.000004 -7.009441 -110.000000
-5.000004 2.990559 -110.000000
4.999996 2.990559 -110.000000
4.999996 -7.009441 -110.000000
-5.000004 -7.009443 -100.000000
4.999996 -7.009443 -100.000000
4.999996 2.990557 -100.000000
-5.000004 2.990557 -100.000000
-5.000004 -7.009441 -110.000000
4.999996 -7.009441 -110.000000
4.999996 -7.009443 -100.000000
-5.000004 -7.009443 -100.000000
4.999996 -7.009441 -110.000000
4.999996 2.990559 -110.000000
4.999996 2.990557 -100.000000
4.999996 -7.009443 -100.000000
4.999996 2.990559 -110.000000
-5.000004 2.990559 -110.000000
-5.000004 2.990557 -100.000000
4.999996 2.990557 -100.000000
-5.000004 2.990559 -110.000000
-5.000004 -7.009441 -110.000000
-5.000004 -7.009443 -100.000000
-5.000004 2.990557 -100.000000
-1.000004 2.990557 -108.000000
-1.000004 6.990557 -108.000000
0.999996 6.990557 -108.000000
0.999996 2.990557 -108.000000
-1.000004 2.990556 -102.000000
0.999996 2.990556 -102.000000
0.999996 6.990556 -102.000000
-1.000004 6.990556 -102.000000
-1.000004 2.990557 -108.000000
0.999996 2.990557 -108.000000
0.999996 2.990556 -102.000000
-1.000004 2.990556 -102.000000
0.999996 2.990557 -108.000000
0.999996 6.990557 -108.000000
0.999996 6.990556 -102.000000
0.999996 2.990556 -102.000000
0.999996 6.990557 -108.000000
-1.000004 6.990557 -108.000000
-1.000004 6.990556 -102.000000
0.999996 6.990556 -102.000000
-1.000004 6.990557 -108.000000
-1.000004 2.990557 -108.000000
-1.000004 2.990556 -102.000000
-1.000004 6.990556 -102.000000
-5.000004 -7.009441 -120.000000
-5.000004 2.990559 -120.000000
4.999996 2.990559 -120.000000
4.999996 -7.009441 -120.000000
-5.000004 -7.009443 -110.000000
4.999996 -7.009443 -110.000000
4.999996 2.990557 -110.000000
-5.000004 2.990557 -110.000000
-5.000004 -7.009441 -120.000000
4.999996 -7.009441 -120.000000
4.999996 -7.009443 -110.000000
-5.000004 -7.009443 -110.000000
4.999996 -7.009441 -120.000000
4.999996 2.990559 -120.000000
4.999996 2.990557 -110.000000
4.999996 -7.009443 -110.000000
4.999996 2.990559 -120.000000
-5.000004 2.990559 -120.000000
-5.000004 2.990557 -110.000000
4.999996 2.990557 -110.000000
-5.000004 2.990559 -120.000000
-5.000004 -7.009441 -120.000000
-5.000004 -7.009443 -110.000000
-5.000004 2.990557 -110.000000
-1.000004 2.990557 -118.000000
-1.000004 6.990557 -118.000000
0.999996 6.990557 -118.000000
0.999996 2.990557 -118.000000
-1.000004 2.990556 -112.000000
0.999996 2.990556 -112.000000
0.999996 6.990556 -112.000000
-1.000004 6.990556 -112.000000
-1.000004 2.990557 -118.000000
0.999996 2.990557 -118.000000
0.999996 2.990556 -112.000000
-1.000004 2.990556 -112.000000
0.999996 2.990557 -118.000000
0.999996 6.990557 -118.000000
0.999996 6.990556 -112.000000
0.999996 2.990556 -112.000000
0.999996 6.990557 -118.000000
-1.000004 6.990557 -118.000000
-1.000004 6.990556 -112.000000
0.999996 6.990556 -112.000000
-1.000004 6.990557 -118.000000
-1.000004 2.990557 -118.000000
-1.000004 2.990556 -112.000000
-1.000004 6.990556 -112.000000
3 0 1 2
3 2 3 0
3 4 5 6
3 6 7 4
3 8 9 10
3 10 11 8
3 12 13 14
3 14 15 12
3 16 17 18
3 18 19 16
3 20 21 22
3 22 23 20
3 24 25 26
3 26 27 24
3 28 29 30
3 30 31 28
3 32 33 34
3 34 35 32
3 36 37 38
3 38 39 36
3 40 41 42
3 42 43 40
3 44 45 46
3 46 47 44
3 48 49 50
3 50 51 48
3 52 53 54
3 54 55 52
3 56 57 58
3 58 59 56
3 60 61 62
3 62 63 60
3 64 65 66
3 66 67 64
3 68 69 70
3 70 71 68
3 72 73 74
3 74 75 72
3 76 77 78
3 78 79 76
3 80 81 82
3 82 83 80
3 84 85 86
3 86 87 84
3 88 89 90
3 90 91 88
3 92 93 94
3 94 95 92
3 96 97 98
3 98 99 96
3 100 101 102
3 102 103 100
3 104 105 106
3 106 107 104
3 108 109 110
3 110 111 108
3 112 113 114
3 114 115 112
3 116 117 118
3 118 119 116
3 120 121 122
3 122 123 120
3 124 125 126
3 126 127 124
3 128 129 130
3 130 131 128
3 132 133 134
3 134 135 132
3 136 137 138
3 138 139 136
3 140 141 142
3 142 143 140
3 144 145 146
3 146 147 144
3 148 149 150
3 150 151 148
3 152 153 154
3 154 155 152
3 156 157 158
3 158 159 156
3 160 161 162
3 162 163 160
3 164 165 166
3 166 167 164
3 168 169 170
3 170 171 168
3 172 173 174
3 174 175 172
3 176 177 178
3 178 179 176
3 180 181 182
3 182 183 180
3 184 185 186
3 186 187 184
3 188 189 190
3 190 191 188
3 192 193 194
3 194 195 192
3 196 197 198
3 198 199 196
3 200 201 202
3 202 203 200
3 204 205 206
3 206 207 204
3 208 209 210
3 210 211 208
3 212 213 214
3 214 215 212
3 216 217 218
3 218 219 216
3 220 221 222
3 222 223 220
3 224 225 226
3 226 227 224
3 228 229 230
3 230 231 228
3 232 233 234
3 234 235 232
3 236 237 238
3 238 239 236
3 240 241 242
3 242 243 240
3 244 245 246
3 246 247 244
3 248 249 250
3 250 251 248
3 252 253 254
3 254 255 252
3 256 257 258
3 258 259 256
3 260 261 262
3 262 263 260
3 264 265 266
3 266 267 264
3 268 269 270
3 270 271 268
3 272 273 274
3 274 275 272
3 276 277 278
3 278 279 276
3 280 281 282
3 282 283 280
3 284 285 286
3 286 287 284
3 288 289 290
3 290 291 288
3 292 293 294
3 294 295 292
3 296 297 298
3 298 299 296
3 300 301 302
3 302 303 300
3 304 305 306
3 306 307 304
3 308 309 310
3 310 311 308
3 312 313 314
3 314 315 312
3 316 317 318
3 318 319 316
3 320 321 322
3 322 323 320
3 324 325 326
3 326 327 324
3 328 329 330
3 330 331 328
3 332 333 334
3 334 335 332
3 336 337 338
3 338 339 336
3 340 341 342
3 342 343 340
3 344 345 346
3 346 347 344
3 348 349 350
3 350 351 348
3 352 353 354
3 354 355 352
3 356 357 358
3 358 359 356
3 360 361 362
3 362 363 360
3 364 365 366
3 366 367 364
3 368 369 370
3 370 371 368
3 372 373 374
3 374 375 372
3 376 377 378
3 378 379 376
3 380 381 382
3 382 383 380
3 384 385 386
3 386 387 384
3 388 389 390
3 390 391 388
3 392 393 394
3 394 395 392
3 396 397 398
3 398 399 396
3 400 401 402
3 402 403 400
3 404 405 406
3 406 407 404
3 408 409 410
3 410 411 408
3 412 413 414
3 414 415 412
3 416 417 418
3 418 419 416
3 420 421 422
3 422 423 420
3 424 425 426
3 426 427 424
3 428 429 430
3 430 431 428
3 432 433 434
3 434 435 432
3 436 437 438
3 438 439 436
3 440 441 442
3 442 443 440
3 444 445 446
3 446 447 444
3 448 449 450
3 450 451 448
3 452 453 454
3 454 455 452
3 456 457 458
3 458 459 456
3 460 461 462
3 462 463 460
3 464 465 466
3 466 467 464
3 468 469 470
3 470 471 468
3 472 473 474
3 474 475 472
3 476 477 478
3 478 479 476
3 480 481 482
3 482 483 480
3 484 485 486
3 486 487 484
3 488 489 490
3 490 491 488
3 492 493 494
3 494 495 492
3 496 497 498
3 498 499 496
3 500 501 502
3 502 503 500
3 504 505 506
3 506 507 504
3 508 509 510
3 510 511 508
3 512 513 514
3 514 515 512
3 516 517 518
3 518 519 516
3 520 521 522
3 522 523 520
3 524 525 526
3 526 527 524
3 528 529 530
3 530 531 528
3 532 533 534
3 534 535 532
3 536 537 538
3 538 539 536
3 540 541 542
3 542 543 540
3 544 545 546
3 546 547 544
3 548 549 550
3 550 551 548
3 552 553 554
3 554 555 552
3 556 557 558
3 558 559 556
3 560 561 562
3 562 563 560
3 564 565 566
3 566 567 564
3 568 569 570
3 570 571 568
3 572 573 574
3 574 575 572
