ply
format ascii 1.0
comment Created by Blender 2.76 (sub 0) - www.blender.org, source file: 'ed_diseño.blend'
element vertex 172
property float x
property float y
property float z
element face 86
property list uchar uint vertex_indices
end_header
-8.000004 -10.000004 0.083878
-8.000004 5.999996 0.083878
7.999996 5.999996 0.083878
7.999996 -10.000004 0.083878
-8.000004 -10.000007 16.083878
7.999996 -10.000007 16.083878
7.999996 5.999994 16.083878
-8.000004 5.999994 16.083878
-8.000004 -10.000004 0.083878
7.999996 -10.000004 0.083878
7.999996 -10.000007 16.083878
-8.000004 -10.000007 16.083878
7.999996 -10.000004 0.083878
7.999996 5.999996 0.083878
7.999996 5.999994 16.083878
7.999996 -10.000007 16.083878
7.999996 5.999996 0.083878
-8.000004 5.999996 0.083878
-8.000004 5.999994 16.083878
7.999996 5.999994 16.083878
-8.000004 5.999996 0.083878
-8.000004 -10.000004 0.083878
-8.000004 -10.000007 16.083878
-8.000004 5.999994 16.083878
-6.000004 -5.897426 16.112610
-6.000004 -0.919757 15.640594
5.999996 -0.919757 15.640594
5.999996 -5.897426 16.112610
-6.000004 -4.386970 32.041168
5.999996 -4.386970 32.041168
5.999996 0.590701 31.569138
-6.000004 0.590701 31.569138
-6.000004 -5.897426 16.112610
5.999996 -5.897426 16.112610
5.999996 -4.386970 32.041168
-6.000004 -4.386970 32.041168
5.999996 -5.897426 16.112610
5.999996 -0.919757 15.640594
5.999996 0.590701 31.569138
5.999996 -4.386970 32.041168
5.999996 -0.919757 15.640594
-6.000004 -0.919757 15.640594
-6.000004 0.590701 31.569138
5.999996 0.590701 31.569138
-6.000004 -0.919757 15.640594
-6.000004 -5.897426 16.112610
-6.000004 -4.386970 32.041168
-6.000004 0.590701 31.569138
-6.000004 -9.988274 15.821594
-6.000004 -5.997450 16.092377
5.999996 -5.997450 16.092377
5.999996 -9.988274 15.821594
-6.000004 -11.071402 31.784897
5.999996 -11.071402 31.784897
5.999996 -7.080577 32.055679
-6.000004 -7.080577 32.055679
-6.000004 -9.988274 15.821594
5.999996 -9.988274 15.821594
5.999996 -11.071402 31.784897
-6.000004 -11.071402 31.784897
5.999996 -9.988274 15.821594
5.999996 -5.997450 16.092377
5.999996 -7.080577 32.055679
5.999996 -11.071402 31.784897
5.999996 -5.997450 16.092377
-6.000004 -5.997450 16.092377
-6.000004 -7.080577 32.055679
5.999996 -7.080577 32.055679
-6.000004 -5.997450 16.092377
-6.000004 -9.988274 15.821594
-6.000004 -11.071402 31.784897
-6.000004 -7.080577 32.055679
-5.000004 0.024280 25.595932
-5.000004 2.015348 25.407135
-3.000004 2.015348 25.407135
-3.000004 0.024280 25.595932
-5.000004 0.401894 29.578064
-3.000004 0.401894 29.578064
-3.000004 2.392962 29.389267
-5.000004 2.392962 29.389267
-5.000004 0.024280 25.595932
-3.000004 0.024280 25.595932
-3.000004 0.401894 29.578064
-5.000004 0.401894 29.578064
-3.000004 0.024280 25.595932
-3.000004 2.015348 25.407135
-3.000004 2.392962 29.389267
-3.000004 0.401894 29.578064
-3.000004 2.015348 25.407135
-5.000004 2.015348 25.407135
-5.000004 2.392962 29.389267
-3.000004 2.392962 29.389267
-5.000004 2.015348 25.407135
-5.000004 0.024280 25.595932
-5.000004 0.401894 29.578064
-5.000004 2.392962 29.389267
-5.000004 -7.000006 0.083878
4.999996 -7.000006 0.083878
4.999996 2.999994 0.083878
-5.000004 2.999994 0.083878
-5.000004 5.999993 5.083878
-5.000004 9.999993 5.083878
-3.000004 9.999993 5.083878
-3.000004 5.999993 5.083878
-5.000004 5.999992 11.083878
-3.000004 5.999992 11.083878
-3.000004 9.999992 11.083878
-5.000004 9.999992 11.083878
-5.000004 5.999993 5.083878
-3.000004 5.999993 5.083878
-3.000004 5.999992 11.083878
-5.000004 5.999992 11.083878
-3.000004 5.999993 5.083878
-3.000004 9.999993 5.083878
-3.000004 9.999992 11.083878
-3.000004 5.999992 11.083878
-3.000004 9.999993 5.083878
-5.000004 9.999993 5.083878
-5.000004 9.999992 11.083878
-3.000004 9.999992 11.083878
-5.000004 9.999993 5.083878
-5.000004 5.999993 5.083878
-5.000004 5.999992 11.083878
-5.000004 9.999992 11.083878
2.999996 0.024280 25.595932
2.999996 2.015348 25.407135
4.999996 2.015348 25.407135
4.999996 0.024280 25.595932
2.999996 0.401894 29.578064
4.999996 0.401894 29.578064
4.999996 2.392962 29.389267
2.999996 2.392962 29.389267
2.999996 0.024280 25.595932
4.999996 0.024280 25.595932
4.999996 0.401894 29.578064
2.999996 0.401894 29.578064
4.999996 0.024280 25.595932
4.999996 2.015348 25.407135
4.999996 2.392962 29.389267
4.999996 0.401894 29.578064
4.999996 2.015348 25.407135
2.999996 2.015348 25.407135
2.999996 2.392962 29.389267
4.999996 2.392962 29.389267
2.999996 2.015348 25.407135
2.999996 0.024280 25.595932
2.999996 0.401894 29.578064
2.999996 2.392962 29.389267
2.999996 5.999993 5.083878
2.999996 9.999993 5.083878
4.999996 9.999993 5.083878
4.999996 5.999993 5.083878
2.999996 5.999992 11.083878
4.999996 5.999992 11.083878
4.999996 9.999992 11.083878
2.999996 9.999992 11.083878
2.999996 5.999993 5.083878
4.999996 5.999993 5.083878
4.999996 5.999992 11.083878
2.999996 5.999992 11.083878
4.999996 5.999993 5.083878
4.999996 9.999993 5.083878
4.999996 9.999992 11.083878
4.999996 5.999992 11.083878
4.999996 9.999993 5.083878
2.999996 9.999993 5.083878
2.999996 9.999992 11.083878
4.999996 9.999992 11.083878
2.999996 9.999993 5.083878
2.999996 5.999993 5.083878
2.999996 5.999992 11.083878
2.999996 9.999992 11.083878
3 0 1 2
3 2 3 0
3 4 5 6
3 6 7 4
3 8 9 10
3 10 11 8
3 12 13 14
3 14 15 12
3 16 17 18
3 18 19 16
3 20 21 22
3 22 23 20
3 24 25 26
3 26 27 24
3 28 29 30
3 30 31 28
3 32 33 34
3 34 35 32
3 36 37 38
3 38 39 36
3 40 41 42
3 42 43 40
3 44 45 46
3 46 47 44
3 48 49 50
3 50 51 48
3 52 53 54
3 54 55 52
3 56 57 58
3 58 59 56
3 60 61 62
3 62 63 60
3 64 65 66
3 66 67 64
3 68 69 70
3 70 71 68
3 72 73 74
3 74 75 72
3 76 77 78
3 78 79 76
3 80 81 82
3 82 83 80
3 84 85 86
3 86 87 84
3 88 89 90
3 90 91 88
3 92 93 94
3 94 95 92
3 96 97 98
3 98 99 96
3 100 101 102
3 102 103 100
3 104 105 106
3 106 107 104
3 108 109 110
3 110 111 108
3 112 113 114
3 114 115 112
3 116 117 118
3 118 119 116
3 120 121 122
3 122 123 120
3 124 125 126
3 126 127 124
3 128 129 130
3 130 131 128
3 132 133 134
3 134 135 132
3 136 137 138
3 138 139 136
3 140 141 142
3 142 143 140
3 144 145 146
3 146 147 144
3 148 149 150
3 150 151 148
3 152 153 154
3 154 155 152
3 156 157 158
3 158 159 156
3 160 161 162
3 162 163 160
3 164 165 166
3 166 167 164
3 168 169 170
3 170 171 168
