ply
format ascii 1.0
comment Created by Blender 2.76 (sub 0) - www.blender.org, source file: 'ed_diseño.blend'
element vertex 235
property float x
property float y
property float z
element face 117
property list uchar uint vertex_indices
end_header
-5.000004 -5.843538 40.086971
-5.000004 4.156462 40.086971
4.999996 4.156462 40.086971
4.999996 -5.843538 40.086971
-5.000004 -5.843538 40.086971
4.999996 -5.843538 40.086971
4.999996 -5.843541 50.086971
-5.000004 -5.843541 50.086971
4.999996 -5.843538 40.086971
4.999996 4.156462 40.086971
4.999996 4.156460 50.086971
4.999996 -5.843541 50.086971
4.999996 4.156462 40.086971
-5.000004 4.156462 40.086971
-5.000004 4.156460 50.086971
4.999996 4.156460 50.086971
-5.000004 4.156462 40.086971
-5.000004 -5.843538 40.086971
-5.000004 -5.843541 50.086971
-5.000004 4.156460 50.086971
-1.000004 4.156461 42.086971
-1.000004 8.156461 42.086971
0.999996 8.156461 42.086971
0.999996 4.156461 42.086971
-1.000004 4.156460 48.086971
0.999996 4.156460 48.086971
0.999996 8.156460 48.086971
-1.000004 8.156460 48.086971
-1.000004 4.156461 42.086971
0.999996 4.156461 42.086971
0.999996 4.156460 48.086971
-1.000004 4.156460 48.086971
0.999996 4.156461 42.086971
0.999996 8.156461 42.086971
0.999996 8.156460 48.086971
0.999996 4.156460 48.086971
0.999996 8.156461 42.086971
-1.000004 8.156461 42.086971
-1.000004 8.156460 48.086971
0.999996 8.156460 48.086971
-1.000004 8.156461 42.086971
-1.000004 4.156461 42.086971
-1.000004 4.156460 48.086971
-1.000004 8.156460 48.086971
-5.000004 -6.252541 30.312305
-5.000004 3.743999 30.049244
4.999996 3.743999 30.049244
4.999996 -6.252541 30.312305
-5.000004 -5.989480 40.308849
4.999996 -5.989480 40.308849
4.999996 4.007061 40.045780
-5.000004 4.007061 40.045780
-5.000004 -6.252541 30.312305
4.999996 -6.252541 30.312305
4.999996 -5.989480 40.308849
-5.000004 -5.989480 40.308849
4.999996 -6.252541 30.312305
4.999996 3.743999 30.049244
4.999996 4.007061 40.045780
4.999996 -5.989480 40.308849
4.999996 3.743999 30.049244
-5.000004 3.743999 30.049244
-5.000004 4.007061 40.045780
4.999996 4.007061 40.045780
-5.000004 3.743999 30.049244
-5.000004 -6.252541 30.312305
-5.000004 -5.989480 40.308849
-5.000004 4.007061 40.045780
-1.000004 3.796610 32.048550
-1.000004 7.795226 31.943325
0.999996 7.795226 31.943325
0.999996 3.796610 32.048550
-1.000004 3.954447 38.046474
0.999996 3.954447 38.046474
0.999996 7.953063 37.941250
-1.000004 7.953063 37.941250
-1.000004 3.796610 32.048550
0.999996 3.796610 32.048550
0.999996 3.954447 38.046474
-1.000004 3.954447 38.046474
0.999996 3.796610 32.048550
0.999996 7.795226 31.943325
0.999996 7.953063 37.941250
0.999996 3.954447 38.046474
0.999996 7.795226 31.943325
-1.000004 7.795226 31.943325
-1.000004 7.953063 37.941250
0.999996 7.953063 37.941250
-1.000004 7.795226 31.943325
-1.000004 3.796610 32.048550
-1.000004 3.954447 38.046474
-1.000004 7.953063 37.941250
-5.000004 -6.378945 20.086971
-5.000004 3.621055 20.086971
4.999996 3.621055 20.086971
4.999996 -6.378945 20.086971
-5.000004 -6.378947 30.086971
4.999996 -6.378947 30.086971
4.999996 3.621053 30.086971
-5.000004 3.621053 30.086971
-5.000004 -6.378945 20.086971
4.999996 -6.378945 20.086971
4.999996 -6.378947 30.086971
-5.000004 -6.378947 30.086971
4.999996 -6.378945 20.086971
4.999996 3.621055 20.086971
4.999996 3.621053 30.086971
4.999996 -6.378947 30.086971
4.999996 3.621055 20.086971
-5.000004 3.621055 20.086971
-5.000004 3.621053 30.086971
4.999996 3.621053 30.086971
-5.000004 3.621055 20.086971
-5.000004 -6.378945 20.086971
-5.000004 -6.378947 30.086971
-5.000004 3.621053 30.086971
-1.000004 3.621053 22.086971
-1.000004 7.621053 22.086971
0.999996 7.621053 22.086971
0.999996 3.621053 22.086971
-1.000004 3.621052 28.086971
0.999996 3.621052 28.086971
0.999996 7.621051 28.086971
-1.000004 7.621051 28.086971
-1.000004 3.621053 22.086971
0.999996 3.621053 22.086971
0.999996 3.621052 28.086971
-1.000004 3.621052 28.086971
0.999996 3.621053 22.086971
0.999996 7.621053 22.086971
0.999996 7.621051 28.086971
0.999996 3.621052 28.086971
0.999996 7.621053 22.086971
-1.000004 7.621053 22.086971
-1.000004 7.621051 28.086971
0.999996 7.621051 28.086971
-1.000004 7.621053 22.086971
-1.000004 3.621053 22.086971
-1.000004 3.621052 28.086971
-1.000004 7.621051 28.086971
-5.000004 -5.950459 9.803104
-5.000004 4.043850 10.140415
4.999996 4.043850 10.140415
4.999996 -5.950459 9.803104
-5.000004 -6.287770 19.797413
4.999996 -6.287770 19.797413
4.999996 3.706539 20.134724
-5.000004 3.706539 20.134724
-5.000004 -5.950459 9.803104
4.999996 -5.950459 9.803104
4.999996 -6.287770 19.797413
-5.000004 -6.287770 19.797413
4.999996 -5.950459 9.803104
4.999996 4.043850 10.140415
4.999996 3.706539 20.134724
4.999996 -6.287770 19.797413
4.999996 4.043850 10.140415
-5.000004 4.043850 10.140415
-5.000004 3.706539 20.134724
4.999996 3.706539 20.134724
-5.000004 4.043850 10.140415
-5.000004 -5.950459 9.803104
-5.000004 -6.287770 19.797413
-5.000004 3.706539 20.134724
-1.000004 3.976387 12.139278
-1.000004 7.974111 12.274197
0.999996 7.974111 12.274197
0.999996 3.976387 12.139278
-1.000004 3.774000 18.135860
0.999996 3.774000 18.135860
0.999996 7.771724 18.270786
-1.000004 7.771724 18.270786
-1.000004 3.976387 12.139278
0.999996 3.976387 12.139278
0.999996 3.774000 18.135860
-1.000004 3.774000 18.135860
0.999996 3.976387 12.139278
0.999996 7.974111 12.274197
0.999996 7.771724 18.270786
0.999996 3.774000 18.135860
0.999996 7.974111 12.274197
-1.000004 7.974111 12.274197
-1.000004 7.771724 18.270786
0.999996 7.771724 18.270786
-1.000004 7.974111 12.274197
-1.000004 3.976387 12.139278
-1.000004 3.774000 18.135860
-1.000004 7.771724 18.270786
4.999996 4.156462 0.086971
4.999996 -5.843538 0.086971
-5.000004 -5.843538 0.086971
-5.000004 -5.843539 10.086971
4.999996 -5.843539 10.086971
4.999996 4.156461 10.086971
-5.000004 4.156461 10.086971
-5.000004 -5.843538 0.086971
4.999996 -5.843538 0.086971
4.999996 -5.843539 10.086971
-5.000004 -5.843539 10.086971
4.999996 -5.843538 0.086971
4.999996 4.156462 0.086971
4.999996 4.156461 10.086971
4.999996 -5.843539 10.086971
4.999996 4.156462 0.086971
-5.000004 4.156462 0.086971
-5.000004 4.156461 10.086971
4.999996 4.156461 10.086971
-5.000004 4.156462 0.086971
-5.000004 -5.843538 0.086971
-5.000004 -5.843539 10.086971
-5.000004 4.156461 10.086971
-1.000004 4.156461 2.086971
-1.000004 8.156460 2.086971
0.999996 8.156460 2.086971
0.999996 4.156461 2.086971
-1.000004 4.156460 8.086971
0.999996 4.156460 8.086971
0.999996 8.156459 8.086971
-1.000004 8.156459 8.086971
-1.000004 4.156461 2.086971
0.999996 4.156461 2.086971
0.999996 4.156460 8.086971
-1.000004 4.156460 8.086971
0.999996 4.156461 2.086971
0.999996 8.156460 2.086971
0.999996 8.156459 8.086971
0.999996 4.156460 8.086971
0.999996 8.156460 2.086971
-1.000004 8.156460 2.086971
-1.000004 8.156459 8.086971
0.999996 8.156459 8.086971
-1.000004 8.156460 2.086971
-1.000004 4.156461 2.086971
-1.000004 4.156460 8.086971
-1.000004 8.156459 8.086971
3 0 1 2
3 2 3 0
3 4 5 6
3 6 7 4
3 8 9 10
3 10 11 8
3 12 13 14
3 14 15 12
3 16 17 18
3 18 19 16
3 20 21 22
3 22 23 20
3 24 25 26
3 26 27 24
3 28 29 30
3 30 31 28
3 32 33 34
3 34 35 32
3 36 37 38
3 38 39 36
3 40 41 42
3 42 43 40
3 44 45 46
3 46 47 44
3 48 49 50
3 50 51 48
3 52 53 54
3 54 55 52
3 56 57 58
3 58 59 56
3 60 61 62
3 62 63 60
3 64 65 66
3 66 67 64
3 68 69 70
3 70 71 68
3 72 73 74
3 74 75 72
3 76 77 78
3 78 79 76
3 80 81 82
3 82 83 80
3 84 85 86
3 86 87 84
3 88 89 90
3 90 91 88
3 92 93 94
3 94 95 92
3 96 97 98
3 98 99 96
3 100 101 102
3 102 103 100
3 104 105 106
3 106 107 104
3 108 109 110
3 110 111 108
3 112 113 114
3 114 115 112
3 116 117 118
3 118 119 116
3 120 121 122
3 122 123 120
3 124 125 126
3 126 127 124
3 128 129 130
3 130 131 128
3 132 133 134
3 134 135 132
3 136 137 138
3 138 139 136
3 140 141 142
3 142 143 140
3 144 145 146
3 146 147 144
3 148 149 150
3 150 151 148
3 152 153 154
3 154 155 152
3 156 157 158
3 158 159 156
3 160 161 162
3 162 163 160
3 164 165 166
3 166 167 164
3 168 169 170
3 170 171 168
3 172 173 174
3 174 175 172
3 176 177 178
3 178 179 176
3 180 181 182
3 182 183 180
3 184 185 186
3 186 187 184
3 188 189 190
3 191 192 193
3 193 194 191
3 195 196 197
3 197 198 195
3 199 200 201
3 201 202 199
3 203 204 205
3 205 206 203
3 207 208 209
3 209 210 207
3 211 212 213
3 213 214 211
3 215 216 217
3 217 218 215
3 219 220 221
3 221 222 219
3 223 224 225
3 225 226 223
3 227 228 229
3 229 230 227
3 231 232 233
3 233 234 231
